<mxfile host="app.diagrams.net" modified="2022-03-10T07:07:40.752Z" agent="5.0 (Windows NT 10.0; Win64; x64) AppleWebKit/537.36 (KHTML, like Gecko) Chrome/99.0.4844.51 Safari/537.36" etag="tLWLYBoPz_E3kuUj9VPj" version="17.0.0" type="github">
  <diagram id="ezSY-wmksSdNFoscop0H" name="Page-1">
    <mxGraphModel dx="1422" dy="737" grid="1" gridSize="10" guides="1" tooltips="1" connect="1" arrows="1" fold="1" page="1" pageScale="1" pageWidth="827" pageHeight="1169" math="0" shadow="0">
      <root>
        <mxCell id="0" />
        <mxCell id="1" parent="0" />
        <mxCell id="oghAxSfRLu5-lUJlxqkl-4" style="edgeStyle=orthogonalEdgeStyle;rounded=0;orthogonalLoop=1;jettySize=auto;html=1;exitX=0.5;exitY=1;exitDx=0;exitDy=0;" parent="1" source="oghAxSfRLu5-lUJlxqkl-1" target="oghAxSfRLu5-lUJlxqkl-3" edge="1">
          <mxGeometry relative="1" as="geometry" />
        </mxCell>
        <mxCell id="oghAxSfRLu5-lUJlxqkl-1" value="开始" style="ellipse;whiteSpace=wrap;html=1;aspect=fixed;" parent="1" vertex="1">
          <mxGeometry x="160" y="160" width="80" height="80" as="geometry" />
        </mxCell>
        <mxCell id="oghAxSfRLu5-lUJlxqkl-7" style="edgeStyle=orthogonalEdgeStyle;rounded=0;orthogonalLoop=1;jettySize=auto;html=1;exitX=0.5;exitY=1;exitDx=0;exitDy=0;entryX=0.5;entryY=0;entryDx=0;entryDy=0;" parent="1" source="oghAxSfRLu5-lUJlxqkl-3" target="oghAxSfRLu5-lUJlxqkl-6" edge="1">
          <mxGeometry relative="1" as="geometry" />
        </mxCell>
        <mxCell id="oghAxSfRLu5-lUJlxqkl-3" value="点击出车检查按钮" style="rounded=1;whiteSpace=wrap;html=1;" parent="1" vertex="1">
          <mxGeometry x="140" y="280" width="120" height="60" as="geometry" />
        </mxCell>
        <mxCell id="oghAxSfRLu5-lUJlxqkl-9" style="edgeStyle=orthogonalEdgeStyle;rounded=0;orthogonalLoop=1;jettySize=auto;html=1;exitX=0.5;exitY=1;exitDx=0;exitDy=0;" parent="1" source="oghAxSfRLu5-lUJlxqkl-6" target="oghAxSfRLu5-lUJlxqkl-8" edge="1">
          <mxGeometry relative="1" as="geometry" />
        </mxCell>
        <mxCell id="oghAxSfRLu5-lUJlxqkl-6" value="填写出车检查项" style="rounded=1;whiteSpace=wrap;html=1;" parent="1" vertex="1">
          <mxGeometry x="140" y="370" width="120" height="60" as="geometry" />
        </mxCell>
        <mxCell id="oghAxSfRLu5-lUJlxqkl-11" style="edgeStyle=orthogonalEdgeStyle;rounded=0;orthogonalLoop=1;jettySize=auto;html=1;exitX=0.5;exitY=1;exitDx=0;exitDy=0;entryX=0.5;entryY=0;entryDx=0;entryDy=0;" parent="1" source="oghAxSfRLu5-lUJlxqkl-8" target="oghAxSfRLu5-lUJlxqkl-10" edge="1">
          <mxGeometry relative="1" as="geometry" />
        </mxCell>
        <mxCell id="oghAxSfRLu5-lUJlxqkl-8" value="上传出车检查照片" style="rounded=1;whiteSpace=wrap;html=1;" parent="1" vertex="1">
          <mxGeometry x="140" y="460" width="120" height="60" as="geometry" />
        </mxCell>
        <mxCell id="oghAxSfRLu5-lUJlxqkl-13" style="edgeStyle=orthogonalEdgeStyle;rounded=0;orthogonalLoop=1;jettySize=auto;html=1;exitX=0.5;exitY=1;exitDx=0;exitDy=0;entryX=0.5;entryY=0;entryDx=0;entryDy=0;" parent="1" source="oghAxSfRLu5-lUJlxqkl-10" target="oghAxSfRLu5-lUJlxqkl-12" edge="1">
          <mxGeometry relative="1" as="geometry" />
        </mxCell>
        <mxCell id="oghAxSfRLu5-lUJlxqkl-10" value="点击提交" style="rounded=1;whiteSpace=wrap;html=1;" parent="1" vertex="1">
          <mxGeometry x="140" y="554.5" width="120" height="60" as="geometry" />
        </mxCell>
        <mxCell id="oghAxSfRLu5-lUJlxqkl-16" style="edgeStyle=orthogonalEdgeStyle;rounded=0;orthogonalLoop=1;jettySize=auto;html=1;exitX=0.5;exitY=1;exitDx=0;exitDy=0;entryX=0.5;entryY=0;entryDx=0;entryDy=0;" parent="1" source="oghAxSfRLu5-lUJlxqkl-12" target="oghAxSfRLu5-lUJlxqkl-17" edge="1">
          <mxGeometry relative="1" as="geometry">
            <mxPoint x="200" y="770" as="targetPoint" />
          </mxGeometry>
        </mxCell>
        <mxCell id="oghAxSfRLu5-lUJlxqkl-18" value="是" style="edgeLabel;html=1;align=center;verticalAlign=middle;resizable=0;points=[];" parent="oghAxSfRLu5-lUJlxqkl-16" vertex="1" connectable="0">
          <mxGeometry x="-0.28" y="-1" relative="1" as="geometry">
            <mxPoint as="offset" />
          </mxGeometry>
        </mxCell>
        <mxCell id="jXRGO0eoqpwSwtgL69Kq-2" style="edgeStyle=orthogonalEdgeStyle;rounded=0;orthogonalLoop=1;jettySize=auto;html=1;exitX=1;exitY=0.5;exitDx=0;exitDy=0;entryX=0;entryY=0.5;entryDx=0;entryDy=0;" edge="1" parent="1" source="oghAxSfRLu5-lUJlxqkl-12" target="jXRGO0eoqpwSwtgL69Kq-1">
          <mxGeometry relative="1" as="geometry" />
        </mxCell>
        <mxCell id="jXRGO0eoqpwSwtgL69Kq-3" value="否" style="edgeLabel;html=1;align=center;verticalAlign=middle;resizable=0;points=[];" vertex="1" connectable="0" parent="jXRGO0eoqpwSwtgL69Kq-2">
          <mxGeometry x="-0.3053" y="1" relative="1" as="geometry">
            <mxPoint as="offset" />
          </mxGeometry>
        </mxCell>
        <mxCell id="oghAxSfRLu5-lUJlxqkl-12" value="所有检查项合格？" style="rhombus;whiteSpace=wrap;html=1;" parent="1" vertex="1">
          <mxGeometry x="135" y="650" width="130" height="80" as="geometry" />
        </mxCell>
        <mxCell id="oghAxSfRLu5-lUJlxqkl-17" value="出车检查合格" style="rounded=1;whiteSpace=wrap;html=1;" parent="1" vertex="1">
          <mxGeometry x="140" y="780" width="120" height="60" as="geometry" />
        </mxCell>
        <mxCell id="jXRGO0eoqpwSwtgL69Kq-5" style="edgeStyle=orthogonalEdgeStyle;rounded=0;orthogonalLoop=1;jettySize=auto;html=1;exitX=1;exitY=0.5;exitDx=0;exitDy=0;" edge="1" parent="1" source="jXRGO0eoqpwSwtgL69Kq-1" target="jXRGO0eoqpwSwtgL69Kq-4">
          <mxGeometry relative="1" as="geometry" />
        </mxCell>
        <mxCell id="jXRGO0eoqpwSwtgL69Kq-1" value="点击出车检查按钮" style="rounded=1;whiteSpace=wrap;html=1;" vertex="1" parent="1">
          <mxGeometry x="360" y="660" width="120" height="60" as="geometry" />
        </mxCell>
        <mxCell id="jXRGO0eoqpwSwtgL69Kq-6" style="edgeStyle=orthogonalEdgeStyle;rounded=0;orthogonalLoop=1;jettySize=auto;html=1;exitX=0.5;exitY=0;exitDx=0;exitDy=0;entryX=0.5;entryY=0;entryDx=0;entryDy=0;" edge="1" parent="1" source="jXRGO0eoqpwSwtgL69Kq-4" target="oghAxSfRLu5-lUJlxqkl-12">
          <mxGeometry relative="1" as="geometry" />
        </mxCell>
        <mxCell id="jXRGO0eoqpwSwtgL69Kq-4" value="修改出车检查项" style="rounded=1;whiteSpace=wrap;html=1;" vertex="1" parent="1">
          <mxGeometry x="520" y="660" width="120" height="60" as="geometry" />
        </mxCell>
      </root>
    </mxGraphModel>
  </diagram>
</mxfile>
